<?xml version="1.0" standalone="no"?>
<!DOCTYPE svg PUBLIC "-//W3C//DTD SVG 20010904//EN"
 "http://www.w3.org/TR/2001/REC-SVG-20010904/DTD/svg10.dtd">
<svg version="1.0" xmlns="http://www.w3.org/2000/svg"
 width="154.000000pt" height="154.000000pt" viewBox="0 0 154.000000 154.000000"
 preserveAspectRatio="xMidYMid meet">

<g transform="translate(0.000000,154.000000) scale(0.100000,-0.100000)"
fill="#000000" stroke="none">
<path d="M0 770 l0 -770 770 0 770 0 0 770 0 770 -770 0 -770 0 0 -770z m343
645 c-1 -42 1 -45 26 -46 17 -1 20 -3 9 -6 -13 -3 -18 -15 -18 -44 0 -21 -4
-39 -10 -39 -5 0 -10 18 -10 40 0 31 -4 40 -17 40 -14 0 -15 2 -5 9 8 5 13 24
12 47 -2 51 -1 59 7 51 3 -4 6 -27 6 -52z m95 19 c40 -45 42 -67 3 -30 l-29
28 -4 -28 c-3 -22 -5 -17 -8 19 -3 26 -3 47 1 47 3 0 20 -16 37 -36z m29 -1
c-3 -10 -5 -4 -5 12 0 17 2 24 5 18 2 -7 2 -21 0 -30z m101 17 c5 -13 3 -13
-12 -1 -9 8 -20 11 -23 7 -4 -4 6 -17 22 -30 26 -21 29 -46 4 -46 -6 0 -7 5
-4 10 4 6 -4 19 -16 29 -15 12 -20 24 -16 35 8 20 38 18 45 -4z m118 8 c5 -8
2 -9 -9 -5 -14 5 -17 0 -17 -33 0 -22 -4 -40 -10 -40 -5 0 -10 18 -10 41 0 24
-4 38 -10 34 -5 -3 -10 -1 -10 4 0 15 57 14 66 -1z m64 -33 c0 -25 -4 -45 -10
-45 -5 0 -10 20 -10 45 0 25 5 45 10 45 6 0 10 -20 10 -45z m116 33 c5 -8 2
-9 -9 -5 -14 5 -17 0 -17 -33 0 -22 -4 -40 -10 -40 -5 0 -10 18 -10 41 0 24
-4 38 -10 34 -5 -3 -10 -1 -10 4 0 15 57 14 66 -1z m64 -28 c0 -33 3 -40 20
-40 17 0 20 7 20 41 0 22 4 38 8 35 15 -9 0 -70 -24 -99 -28 -34 -29 -44 -7
-69 20 -22 1 -24 -21 -2 -15 14 -17 14 -32 0 -22 -22 -24 -20 -11 14 13 34 -1
57 -27 47 -19 -7 -21 -48 -4 -65 7 -7 8 -12 2 -12 -30 0 -45 55 -22 78 17 17
55 15 66 -5 9 -16 11 -16 27 0 15 15 15 18 1 33 -18 17 -22 84 -6 84 6 0 10
-18 10 -40z m170 30 c0 -5 -6 -9 -12 -7 -8 1 -14 -12 -16 -35 -2 -21 -8 -38
-13 -38 -6 0 -9 17 -8 38 2 25 -1 36 -9 35 -7 -2 -12 2 -12 7 0 6 16 10 35 10
19 0 35 -4 35 -10z m108 -2 c17 -17 15 -53 -3 -68 -14 -12 -14 -15 0 -30 25
-28 13 -80 -19 -80 -6 0 -5 5 2 12 16 16 15 53 -2 67 -22 18 -42 -23 -27 -55
8 -19 7 -22 -4 -18 -31 12 -25 83 8 84 7 0 4 5 -5 11 -35 20 -17 89 22 89 9 0
21 -5 28 -12z m-673 -68 c3 -5 1 -10 -4 -10 -6 0 -11 5 -11 10 0 6 2 10 4 10
3 0 8 -4 11 -10z m-92 -27 c-19 -4 -23 -11 -23 -44 0 -21 -4 -39 -10 -39 -5 0
-10 20 -10 45 0 44 0 45 33 44 23 -1 26 -3 10 -6z m65 -4 c-10 -5 -18 -21 -18
-34 0 -13 8 -29 18 -34 14 -9 14 -10 1 -11 -21 0 -39 20 -39 45 0 25 18 45 40
45 12 -1 12 -2 -2 -11z m42 1 c0 -5 -4 -10 -10 -10 -5 0 -10 5 -10 10 0 6 5
10 10 10 6 0 10 -4 10 -10z m57 -27 c18 -20 31 -39 28 -41 -6 -7 -54 37 -66
61 -16 29 4 19 38 -20z m26 17 c-3 -11 -7 -20 -9 -20 -2 0 -4 9 -4 20 0 11 4
20 9 20 5 0 7 -9 4 -20z m97 -1 c9 -16 8 -26 -5 -45 -19 -29 -30 -32 -15 -4
14 27 3 62 -18 58 -21 -4 -28 -44 -12 -64 15 -17 -1 -19 -18 -2 -15 15 -15 51
0 66 19 19 56 14 68 -9z m42 -24 c2 -31 -1 -45 -9 -45 -9 0 -13 16 -13 45 0
25 4 45 9 45 5 0 11 -20 13 -45z m218 35 c0 -5 -2 -10 -4 -10 -3 0 -8 5 -11
10 -3 6 -1 10 4 10 6 0 11 -4 11 -10z m42 -36 c-2 -25 -7 -43 -9 -40 -10 10
-8 86 2 86 6 0 9 -19 7 -46z m56 35 c-10 -5 -18 -21 -18 -34 0 -13 8 -29 18
-34 14 -9 14 -10 2 -11 -22 0 -40 20 -40 45 0 25 18 45 40 45 12 -1 12 -2 -2
-11z m42 1 c0 -5 -4 -10 -10 -10 -5 0 -10 5 -10 10 0 6 5 10 10 10 6 0 10 -4
10 -10z m-680 -30 c0 -5 -5 -10 -11 -10 -5 0 -7 5 -4 10 3 6 8 10 11 10 2 0 4
-4 4 -10z m542 -25 c-2 -14 -7 -25 -11 -25 -3 0 -6 11 -6 25 0 14 5 25 11 25
7 0 9 -10 6 -25z m-412 -6 c0 -11 -4 -18 -10 -14 -5 3 -7 12 -3 20 7 21 13 19
13 -6z m-120 -9 c0 -5 -5 -10 -11 -10 -5 0 -7 5 -4 10 3 6 8 10 11 10 2 0 4
-4 4 -10z m350 0 c0 -5 -5 -10 -11 -10 -5 0 -7 5 -4 10 3 6 8 10 11 10 2 0 4
-4 4 -10z m-6 -67 c7 -26 14 -33 34 -33 14 0 35 9 47 20 18 17 27 19 48 11 22
-9 26 -16 24 -49 -1 -37 -4 -41 -52 -64 -43 -21 -56 -23 -93 -15 -31 7 -58 6
-100 -4 l-57 -14 93 -3 c50 -1 92 -6 92 -9 0 -4 -16 -21 -35 -39 -19 -17 -35
-41 -35 -53 0 -12 -4 -19 -10 -16 -5 3 -10 15 -10 25 0 24 -36 59 -70 67 -14
4 -31 13 -39 21 -13 13 -16 13 -20 0 -3 -9 -21 -28 -39 -43 -30 -25 -92 -118
-92 -139 0 -7 29 23 99 102 25 27 37 28 44 3 3 -13 20 -24 48 -31 24 -7 54
-21 66 -32 20 -19 23 -19 29 -4 7 19 24 22 24 4 0 -7 -7 -26 -15 -42 -8 -15
-15 -36 -15 -45 -1 -9 -7 -1 -15 17 -10 22 -26 38 -52 48 -21 8 -48 27 -60 42
l-23 27 0 -45 c0 -48 21 -90 46 -90 8 0 14 -4 14 -10 0 -5 11 -10 25 -10 24 0
51 -32 40 -49 -6 -11 -105 37 -112 55 -8 21 -21 7 -17 -18 5 -37 12 -67 19
-78 4 -6 -20 -10 -64 -10 -39 0 -71 -3 -71 -7 1 -5 11 -27 23 -50 19 -37 104
-114 138 -125 20 -7 0 -47 -31 -63 -21 -11 -36 -12 -53 -6 -18 7 -30 5 -45 -5
-18 -12 -25 -12 -42 -2 -22 14 -23 17 -20 66 2 45 -24 74 -56 62 -20 -8 -26
-5 -38 19 -14 26 -13 30 4 49 22 23 26 47 9 57 -6 4 -8 13 -5 20 3 8 -6 15
-25 19 -25 5 -29 10 -29 40 0 29 4 34 28 39 24 5 29 11 30 38 0 21 -6 38 -19
48 -17 14 -19 21 -10 44 8 21 17 27 40 27 37 0 69 41 46 60 -21 17 -19 33 8
58 21 20 25 20 44 7 18 -13 23 -12 49 8 21 16 28 29 26 48 -2 19 3 28 24 38
25 11 30 10 43 -7 24 -30 77 -19 86 16 13 53 64 56 79 5z m271 -93 c15 -16 16
-25 8 -43 -16 -35 20 -91 53 -83 18 5 27 0 40 -19 16 -25 16 -27 -5 -49 -28
-30 -20 -82 15 -90 13 -4 24 -13 24 -20 0 -8 3 -22 6 -30 5 -12 -2 -19 -24
-27 -24 -8 -31 -18 -37 -47 -5 -28 -3 -39 10 -48 13 -9 15 -21 10 -43 -6 -27
-11 -31 -40 -31 -42 0 -50 -13 -34 -51 11 -28 10 -33 -14 -57 l-27 -27 -15 23
c-15 21 -17 21 -41 5 -21 -13 -25 -22 -20 -45 5 -23 1 -30 -23 -42 -25 -14
-29 -13 -47 5 -29 28 -77 17 -91 -22 -16 -42 -60 -41 -74 1 -14 38 -50 41 -68
6 -12 -21 -17 -23 -42 -14 -42 15 -39 49 7 71 21 11 39 28 45 45 9 27 12 28
62 24 101 -8 205 42 257 125 44 69 42 73 -45 73 -75 0 -76 0 -64 23 7 12 12
23 11 25 -7 9 0 22 9 16 6 -3 9 -17 6 -30 -2 -13 0 -21 4 -18 5 3 9 23 9 45 0
28 -4 39 -15 39 -8 0 -15 6 -16 13 0 10 -2 10 -6 0 -2 -7 -16 -13 -29 -13 -15
0 -24 -6 -24 -15 0 -9 -8 -18 -17 -22 -10 -3 -26 -13 -35 -21 -16 -14 -18 -13
-18 6 0 26 25 52 51 52 10 0 19 5 19 10 0 6 6 10 14 10 25 0 46 42 45 90 0 40
-2 42 -11 23 -6 -13 -17 -23 -25 -23 -7 0 -13 -4 -13 -10 0 -5 -7 -10 -15 -10
-26 0 -17 38 13 52 15 7 31 23 37 36 5 12 12 22 15 22 12 -1 38 -28 59 -62 12
-21 26 -38 30 -38 4 0 18 -18 30 -41 30 -53 37 -43 15 23 -12 38 -33 69 -76
111 -32 32 -58 60 -58 63 0 4 130 72 141 73 3 1 14 -8 24 -19z m-155 -756 c7
-18 17 -24 40 -24 25 0 33 5 41 30 9 24 17 30 41 30 24 0 32 -6 41 -30 9 -24
17 -30 42 -30 25 0 33 6 42 30 9 24 17 30 42 30 37 0 45 -14 46 -85 l0 -50
-464 -3 c-256 -1 -462 0 -459 3 3 3 116 6 250 6 l245 0 6 50 c4 28 11 57 17
64 16 19 60 6 70 -21z m-522 -144 c6 0 12 -10 12 -22 0 -20 -1 -21 -13 -4 -21
28 -69 18 -78 -17 -16 -59 25 -101 73 -76 21 11 22 11 9 -4 -23 -28 -76 -22
-100 12 -28 39 -26 57 9 93 23 22 37 29 53 24 12 -3 28 -6 35 -6z m136 -11
c52 -41 26 -129 -37 -129 -43 0 -67 25 -67 71 0 29 6 42 26 58 15 12 32 21 39
21 7 0 24 -9 39 -21z m103 -34 c10 -25 20 -45 24 -45 3 0 15 20 27 45 32 67
47 59 47 -25 0 -57 -3 -70 -15 -70 -12 0 -15 8 -12 34 7 56 -4 64 -23 19 -9
-24 -21 -43 -26 -43 -5 0 -16 18 -25 40 -21 53 -32 51 -24 -5 6 -37 4 -45 -9
-45 -13 0 -16 13 -16 70 0 58 3 70 17 70 10 0 23 -17 35 -45z m168 -25 c0 -56
-3 -70 -15 -70 -12 0 -15 14 -15 70 0 56 3 70 15 70 12 0 15 -14 15 -70z m145
53 c0 -13 -3 -14 -12 -5 -7 7 -18 12 -26 12 -11 0 -13 -15 -10 -65 2 -53 0
-65 -12 -65 -13 0 -15 11 -12 65 3 51 1 65 -10 65 -8 0 -19 -5 -26 -12 -9 -9
-12 -8 -12 5 0 14 10 17 60 17 50 0 60 -3 60 -17z m90 5 c0 -7 13 -39 29 -70
l28 -58 -23 0 c-15 0 -22 5 -19 13 8 20 -11 39 -36 35 -16 -2 -25 -11 -27 -25
-2 -13 -10 -23 -18 -23 -18 0 -18 -2 6 48 11 23 25 53 30 67 10 26 30 34 30
13z m140 -35 l41 -48 -3 48 c-3 42 -1 47 17 46 11 0 14 -3 8 -6 -9 -3 -13 -27
-13 -71 l0 -67 -32 40 c-18 21 -39 46 -46 54 -11 13 -12 7 -10 -37 2 -38 -1
-52 -10 -52 -10 0 -13 14 -11 58 2 31 0 63 -4 70 -5 7 -3 12 7 12 8 0 33 -21
56 -47z"/>
<path d="M1164 1447 c-9 -25 0 -62 16 -62 10 0 15 10 15 34 0 36 -21 54 -31
28z"/>
<path d="M461 201 c-16 -29 -13 -56 7 -81 37 -46 87 7 66 69 -12 34 -58 42
-73 12z"/>
<path d="M1011 171 c-10 -18 -9 -21 9 -21 22 0 25 7 11 29 -7 11 -11 9 -20 -8z"/>
</g>
</svg>
